<?xml version="1.0" encoding="utf-8"?>
<!-- Generator: Adobe Illustrator 24.0.1, SVG Export Plug-In . SVG Version: 6.00 Build 0)  -->
<svg version="1.1" id="Layer_1" xmlns="http://www.w3.org/2000/svg" xmlns:xlink="http://www.w3.org/1999/xlink" x="0px" y="0px"
	 viewBox="0 0 260 61" style="enable-background:new 0 0 260 61;" xml:space="preserve">
<style type="text/css">
	.st0{fill:#E63189;}
	.st1{fill:#FFFFFF;}
	.st2{fill:#B7005D;}
	.st3{fill:#848489;}
	.st4{fill:url(#SVGID_1_);}
	.st5{fill:url(#SVGID_2_);}
	.st6{fill:url(#SVGID_3_);}
	.st7{fill:url(#SVGID_4_);}
	.st8{fill:url(#SVGID_5_);}
	.st9{fill:url(#SVGID_6_);}
	.st10{fill:url(#SVGID_7_);}
	.st11{fill:url(#SVGID_8_);}
	.st12{fill:url(#SVGID_9_);}
	.st13{fill:url(#SVGID_10_);}
	.st14{fill:url(#SVGID_11_);}
</style>
<g>
	<path class="st0" d="M26.5,31.3c0,0,3.3-13.5,10.1-19.3s13.7-8,19.2-7.6s-6,19.3-12.7,22S27.4,29.2,26.5,31.3z"/>
	<path class="st0" d="M24.4,51.9c0,0,3.4-17.5-0.8-29.5s-9.9-17.3-15-17s-4,5.5,1.4,8.1C10,13.6,26.4,23.2,24.4,51.9z"/>
	<path class="st0" d="M22.6,40.7c0,0,0.7,9.7-1.5,12.7c-2.2,3-4,3.6-6,3.1c-2-0.6-4-2,1.4-6.7S22.6,40.7,22.6,40.7z"/>
	<path class="st0" d="M27.8,33.4c0,0,3-2.6,9-0.7s9.7,4.2,7.4,9.7s-5.3,9.5-8.3,10.3s-6.7-7.2-7.2-8.7S25.5,34.5,27.8,33.4z"/>
	<path class="st1" d="M39.2,12.4c0,0,3.2-3.2,8.6-4.3s7.7-1,7-2.3C54.1,4.5,41.3,8.1,39.2,12.4z"/>
	<path class="st1" d="M19.5,17.4c0,0-1.4-3.6-5.3-6.2S8.6,7.9,9.6,7.1C10.6,6.3,19.3,13.4,19.5,17.4z"/>
	<path class="st1" d="M28.3,36.4c0,0,1.5-2.6,5.7-1.9c0,0-1.6-1.4-4-0.7C27.6,34.4,28.3,36.4,28.3,36.4z"/>
	<path class="st1" d="M16.9,51.1c0,0-0.9,2.6-0.6,4c0.2,1-2.9,1.1-2-0.9C15.1,52.2,16.9,51.1,16.9,51.1z"/>
	<path class="st2" d="M42.7,43c0,0-4.1,9-7.5,8.5c0,0-0.7,0.2-0.8-0.8c-0.1-1,1.2-1,2.3-1.2S39.7,48.4,42.7,43z"/>
	<path class="st2" d="M33.4,27.7c0,0,7.1-1,10.6-2.8c3.5-1.7,6.8-7.5,6.8-7.5S46.1,24.7,33.4,27.7z"/>
	<path class="st3" d="M83.2,14.7l-1,0l-2.8,2.9v7.3h-2.7V4.6h2.7v10.6l9.9-10.6h3.3l-8.1,8.5L93,24.9h-3.5l-6.3-10V14.7z"/>
	<path class="st3" d="M119.4,25h-2.8l-2.4-6.4l-8.7,0l-2.5,6.3l-2.5,0.1l7.8-20.2l2.7,0L119.4,25z M113,16.7l-3.4-9.6l-3.5,9.6H113z
		"/>
	<path class="st3" d="M145.2,14.8c0,1.8-0.4,3.5-1.2,5s-1.8,2.6-3.1,3.4c-0.9,0.6-1.9,1-3,1.2c-1.1,0.3-2.6,0.4-4.4,0.4h-5v-20h4.9
		c1.9,0,3.4,0.1,4.6,0.4c1.1,0.3,2.1,0.7,2.9,1.2c1.3,0.9,2.4,2,3.1,3.4C144.8,11.2,145.2,12.9,145.2,14.8z M142.5,14.8
		c0-1.6-0.3-2.9-0.8-4c-0.5-1.1-1.3-1.9-2.4-2.5c-0.8-0.4-1.6-0.8-2.5-0.9c-0.9-0.2-1.9-0.3-3.1-0.3L130.6,7v15.5l3.1,0.1
		c1.3,0,2.4-0.1,3.3-0.3c0.9-0.2,1.8-0.5,2.6-1c1-0.6,1.7-1.5,2.2-2.5C142.2,17.7,142.5,16.4,142.5,14.8z"/>
	<path class="st3" d="M176,9h-0.5l0.2,16.1H173V4.8h2.9l10.4,15.5l0.8,0l-0.1-15.4h2.3v20.3h-2.7l-10.5-16L176,9z"/>
	<path class="st3" d="M214.6,25.1h-12.4V4.8l2.4,0v17.9l10,0V25.1z"/>
	<path class="st3" d="M240,25h-14.3l-0.2-20.2h14.3v1.9l-12.2,0l0,6.4l11.7,0l0,2.3l-11.7,0v7.3l12.3,0.1L240,25z"/>
	<rect x="157.3" y="4.7" class="st3" width="2.8" height="20.2"/>
	<g>
		<linearGradient id="SVGID_1_" gradientUnits="userSpaceOnUse" x1="63.5246" y1="54.4781" x2="63.5246" y2="37.4784">
			<stop  offset="0" style="stop-color:#A8CBE7"/>
			<stop  offset="1" style="stop-color:#DA79A9"/>
		</linearGradient>
		<path class="st4" d="M68.3,54.5h-2l-4.5-6.9l-1.3,1.3v5.6h-1.6l-0.1-17h1.6l0.1,9.1l4.9-3.9h1.9l-4,3.6L68.3,54.5z"/>
		<linearGradient id="SVGID_2_" gradientUnits="userSpaceOnUse" x1="82.5383" y1="55.0527" x2="82.5383" y2="42.0807">
			<stop  offset="0" style="stop-color:#A8CBE7"/>
			<stop  offset="1" style="stop-color:#DA79A9"/>
		</linearGradient>
		<path class="st5" d="M87.8,54.7h-2.1v-1.3c-0.2,0.1-0.4,0.3-0.7,0.5c-0.3,0.2-0.6,0.4-0.9,0.5c-0.3,0.2-0.7,0.3-1.2,0.4
			c-0.4,0.1-1,0.2-1.6,0.2c-1.1,0-2.1-0.4-2.8-1.1c-0.8-0.7-1.2-1.7-1.2-2.8c0-0.9,0.2-1.7,0.6-2.3c0.4-0.6,1-1,1.7-1.4
			c0.8-0.3,1.7-0.6,2.7-0.7c1.1-0.1,2.2-0.2,3.4-0.3v-0.3c0-0.5-0.1-0.9-0.2-1.2c-0.2-0.3-0.4-0.6-0.7-0.7c-0.3-0.2-0.6-0.3-1.1-0.3
			c-0.4-0.1-0.8-0.1-1.3-0.1c-0.5,0-1.2,0.1-1.8,0.2c-0.7,0.1-1.4,0.4-2.1,0.6h-0.1v-2.1c0.4-0.1,1-0.2,1.8-0.4
			c0.8-0.1,1.5-0.2,2.3-0.2c0.9,0,1.6,0.1,2.3,0.2s1.2,0.4,1.7,0.7c0.5,0.3,0.8,0.8,1.1,1.3c0.2,0.5,0.4,1.2,0.4,2V54.7z M85.7,51.7
			v-3.4c-0.6,0-1.4,0.1-2.2,0.2c-0.9,0.1-1.5,0.2-2,0.3c-0.6,0.2-1.1,0.4-1.4,0.8c-0.4,0.4-0.6,0.8-0.6,1.5c0,0.7,0.2,1.2,0.6,1.6
			c0.4,0.4,1.1,0.5,2,0.5c0.7,0,1.4-0.1,2-0.4C84.6,52.4,85.2,52.1,85.7,51.7z"/>
		<linearGradient id="SVGID_3_" gradientUnits="userSpaceOnUse" x1="103.7096" y1="54.8198" x2="103.7096" y2="37.2996">
			<stop  offset="0" style="stop-color:#A8CBE7"/>
			<stop  offset="1" style="stop-color:#DA79A9"/>
		</linearGradient>
		<path class="st6" d="M108.8,54.5h-1.9v-1.3c-0.6,0.5-1.1,0.9-1.8,1.2c-0.6,0.3-1.3,0.4-2,0.4c-1.4,0-2.5-0.6-3.3-1.7
			c-0.8-1.1-1.2-2.7-1.2-4.7c0-1,0.1-2,0.4-2.8c0.3-0.8,0.7-1.5,1.1-2.1c0.5-0.6,1-1,1.6-1.3c0.6-0.3,1.3-0.4,1.9-0.4
			c0.6,0,1.1,0.1,1.6,0.2c0.5,0.1,1,0.3,1.5,0.6v-5.3h1.9V54.5z M106.9,51.4v-7.1c-0.5-0.3-1-0.4-1.4-0.5c-0.4-0.1-0.9-0.1-1.4-0.1
			c-1.1,0-1.9,0.4-2.6,1.2c-0.6,0.8-0.9,2-0.9,3.4c0,1.5,0.2,2.6,0.7,3.3c0.5,0.8,1.2,1.1,2.3,1.1c0.6,0,1.1-0.1,1.7-0.4
			C105.8,52.2,106.4,51.9,106.9,51.4z"/>
		<linearGradient id="SVGID_4_" gradientUnits="userSpaceOnUse" x1="120.5851" y1="54.4781" x2="120.5851" y2="37.4406">
			<stop  offset="0" style="stop-color:#A8CBE7"/>
			<stop  offset="1" style="stop-color:#DA79A9"/>
		</linearGradient>
		<path class="st7" d="M121.2,39.6h-1.3v-2.2h1.3V39.6z M121.2,54.5H120V42.6h1.1V54.5z"/>
		<linearGradient id="SVGID_5_" gradientUnits="userSpaceOnUse" x1="154.5804" y1="54.6094" x2="154.5804" y2="37.5719">
			<stop  offset="0" style="stop-color:#A8CBE7"/>
			<stop  offset="1" style="stop-color:#DA79A9"/>
		</linearGradient>
		<path class="st8" d="M155.2,39.7h-1.3v-2.2h1.3V39.7z M155.2,54.6H154V42.7h1.1V54.6z"/>
		<linearGradient id="SVGID_6_" gradientUnits="userSpaceOnUse" x1="199.1739" y1="54.5602" x2="199.1739" y2="37.5227">
			<stop  offset="0" style="stop-color:#A8CBE7"/>
			<stop  offset="1" style="stop-color:#DA79A9"/>
		</linearGradient>
		<path class="st9" d="M199.8,39.7h-1.3v-2.2h1.3V39.7z M199.7,54.6h-1.1V42.6h1.1V54.6z"/>
		<linearGradient id="SVGID_7_" gradientUnits="userSpaceOnUse" x1="137.4548" y1="54.5349" x2="137.4548" y2="42.2154">
			<stop  offset="0" style="stop-color:#A8CBE7"/>
			<stop  offset="1" style="stop-color:#DA79A9"/>
		</linearGradient>
		<path class="st10" d="M142.2,54.5l-1.4,0.1v-7c0-0.6,0-1.1-0.1-1.6c-0.1-0.5-0.2-0.9-0.3-1.2c-0.2-0.3-0.4-0.5-0.7-0.7
			c-0.3-0.2-0.8-0.4-1.3-0.4c-0.5,0-1.6,0.2-2.2,0.5c-0.6,0.3-1.6,0.6-2.1,1.1v9.2h-1.5l0-11.9h1.4l0,1.4c0.6-0.5,1.6-1,2.2-1.3
			c0.6-0.3,1.3-0.5,2-0.5c1.2,0,2.2,0.4,2.8,1.2s1,1.5,1,3.1V54.5z"/>
		<linearGradient id="SVGID_8_" gradientUnits="userSpaceOnUse" x1="215.7736" y1="54.5768" x2="215.7736" y2="42.2572">
			<stop  offset="0" style="stop-color:#A8CBE7"/>
			<stop  offset="1" style="stop-color:#DA79A9"/>
		</linearGradient>
		<path class="st11" d="M220.5,54.5l-1.4,0.1v-7c0-0.6,0-1.1-0.1-1.6c-0.1-0.5-0.2-0.9-0.3-1.2c-0.2-0.3-0.4-0.5-0.7-0.7
			c-0.3-0.2-0.8-0.4-1.3-0.4c-0.5,0-1.6,0.2-2.2,0.5c-0.6,0.3-1.6,0.6-2.1,1.1v9.2H211l0-11.9h1.4l0,1.4c0.6-0.5,1.6-1,2.2-1.3
			c0.6-0.3,1.3-0.5,2-0.5c1.2,0,2.2,0.4,2.8,1.2c0.6,0.8,1,1.5,1,3.1V54.5z"/>
		<linearGradient id="SVGID_9_" gradientUnits="userSpaceOnUse" x1="181.6442" y1="54.9561" x2="181.6442" y2="37.354">
			<stop  offset="0" style="stop-color:#A8CBE7"/>
			<stop  offset="1" style="stop-color:#DA79A9"/>
		</linearGradient>
		<path class="st12" d="M186.6,54.6l-1.6-0.1v-1.3c-0.5,0.5-1.4,1-2,1.3c-0.6,0.3-1.2,0.4-1.9,0.4c-1.4,0-2.4-0.6-3.2-1.7
			c-0.8-1.1-1.2-2.7-1.2-4.7c0-1,0.1-2,0.4-2.8c0.3-0.8,0.6-1.5,1.1-2.1c0.5-0.6,1-1,1.6-1.3c0.6-0.3,1.2-0.4,1.9-0.4
			c0.6,0,1.1,0.1,1.6,0.2s1.2,0.3,1.8,0.6v-5.3l1.6,0.1V54.6z M185.1,51.4l0-6.5c-0.5-0.3-1.4-0.8-1.8-0.9c-0.4-0.1-1.2-0.3-1.6-0.3
			c-1.1,0-2.3,0.6-2.9,1.5s-0.9,2-0.9,3.4c0,1.5,0.2,2.6,0.7,3.3c0.5,0.8,1.9,1.4,2.9,1.4c0.5,0,1.3-0.3,1.9-0.5
			C183.9,52.5,184.6,51.8,185.1,51.4z"/>
		<linearGradient id="SVGID_10_" gradientUnits="userSpaceOnUse" x1="232.3566" y1="54.4781" x2="232.3566" y2="37.2996">
			<stop  offset="0" style="stop-color:#A8CBE7"/>
			<stop  offset="1" style="stop-color:#DA79A9"/>
		</linearGradient>
		<path class="st13" d="M233.4,54.5h-2.1V37.3h2.1V54.5z"/>
		<linearGradient id="SVGID_11_" gradientUnits="userSpaceOnUse" x1="249.5722" y1="54.7653" x2="249.5722" y2="42.1266">
			<stop  offset="0" style="stop-color:#A8CBE7"/>
			<stop  offset="1" style="stop-color:#DA79A9"/>
		</linearGradient>
		<path class="st14" d="M254.8,48.5h-9.2c0,0.8,0.1,1.4,0.3,2c0.2,0.6,0.5,1.4,0.9,1.7c0.4,0.4,0.8,0.6,1.3,0.8
			c0.5,0.2,1,0.3,1.6,0.3c0.8,0,2.3-0.2,3-0.5c0.8-0.3,0.6-1.3,0.9-1.6l1.1,0l-0.2,1.7c-0.5,0.5-1.3,1.4-2,1.6
			c-0.7,0.2-1.4,0.3-2.1,0.3c-1.9,0-3.4-0.6-4.5-1.7c-1.1-1.1-1.6-2.7-1.6-4.7c0-2,0.5-3.3,1.5-4.5c1-1.2,2.4-1.8,4.1-1.8
			c1.6,0,2.8,0.5,3.6,1.5s1.3,2,1.3,3.8V48.5z M253.8,47.5c0-1.1-1.2-2.5-1.7-3.1c-0.5-0.6-1.3-0.9-2.3-0.9c-1,0-1.9,0.3-2.5,1
			s-1.5,2-1.6,3H253.8z"/>
	</g>
</g>
</svg>
